<svg xmlns="http://www.w3.org/2000/svg" width="512" height="512" style="overflow: visible;" viewBox="0 0 512 512" data-svgdocument="" id="_HOqqhBsxQIWC7IZSj4LAF" class="fl-svgdocument" x="0" y="0" xmlns:xlink="http://www.w3.org/1999/xlink" overflow="hidden" data-bbox="-25.085047404324968 -83.27780494432443 578.1701375132527 595.2777868863537"><defs id="_tW-zpv46tYUMQhFMj2pNC" transform="matrix(0.6849894523620605, 0, 0, 0.6849894523620605, -15.917004585266113, 66.6427993774414)" data-uid="o_en93k68lj_4"><linearGradient id="_tNvbYdpu-aEzQw7GBx7Qs" x1="0.5" y1="1" x2="0.5" y2="0" data-uid="o_en93k68lj_5"><stop id="_dN-AEJkdqgbcPI8XTM8Nx" offset="7.11%" stop-color="rgb(177, 177, 177)" data-uid="o_en93k68lj_6"></stop><stop id="_FtjUbNvfShjLQyjfnRcOk" offset="54.98%" stop-color="rgb(58, 58, 58)" data-uid="o_en93k68lj_7"></stop><stop id="_H9w7EwfR9Xgd2RE5fj84J" offset="100%" stop-color="rgb(58, 58, 58)" data-uid="o_en93k68lj_8"></stop></linearGradient><linearGradient id="go_en93gilig_38" x1="0%" y1="50%" x2="100%" y2="50%" data-uid="o_en93k68lj_9"><stop offset="21%" stop-color="rgb(0,169,255)" stop-opacity="1" data-uid="o_en93k68lj_10"></stop><stop offset="91%" stop-color="rgb(0,169,255)" stop-opacity="1" data-uid="o_en93k68lj_11"></stop><stop offset="94%" stop-color="rgb(7,170,253)" stop-opacity="1" data-uid="o_en93k68lj_12"></stop><stop offset="100%" stop-color="rgb(0,169,255)" stop-opacity="1" data-uid="o_en93k68lj_13"></stop></linearGradient><linearGradient id="go_en93gilig_38" x1="0%" y1="50%" x2="100%" y2="50%" data-uid="o_en93k68lj_9"><stop offset="21%" stop-color="rgb(0,169,255)" stop-opacity="1" data-uid="o_en93k68lj_10"></stop><stop offset="91%" stop-color="rgb(0,169,255)" stop-opacity="1" data-uid="o_en93k68lj_11"></stop><stop offset="94%" stop-color="rgb(7,170,253)" stop-opacity="1" data-uid="o_en93k68lj_12"></stop><stop offset="100%" stop-color="rgb(0,169,255)" stop-opacity="1" data-uid="o_en93k68lj_13"></stop></linearGradient><linearGradient id="_tNvbYdpu-aEzQw7GBx7Qs" x1="0.5" y1="1" x2="0.5" y2="0" data-uid="o_en93k68lj_5"><stop id="_dN-AEJkdqgbcPI8XTM8Nx" offset="7.11%" stop-color="rgb(177, 177, 177)" data-uid="o_en93k68lj_6"></stop><stop id="_FtjUbNvfShjLQyjfnRcOk" offset="54.98%" stop-color="rgb(58, 58, 58)" data-uid="o_en93k68lj_7"></stop><stop id="_H9w7EwfR9Xgd2RE5fj84J" offset="100%" stop-color="rgb(58, 58, 58)" data-uid="o_en93k68lj_8"></stop></linearGradient><linearGradient id="go_en93gilig_38" x1="0%" y1="50%" x2="100%" y2="50%" data-uid="o_en93k68lj_9"><stop offset="21%" stop-color="rgb(0,169,255)" stop-opacity="1" data-uid="o_en93k68lj_10"></stop><stop offset="91%" stop-color="rgb(0,169,255)" stop-opacity="1" data-uid="o_en93k68lj_11"></stop><stop offset="94%" stop-color="rgb(7,170,253)" stop-opacity="1" data-uid="o_en93k68lj_12"></stop><stop offset="100%" stop-color="rgb(0,169,255)" stop-opacity="1" data-uid="o_en93k68lj_13"></stop></linearGradient><linearGradient id="_tNvbYdpu-aEzQw7GBx7Qs" x1="0.5" y1="1" x2="0.5" y2="0" data-uid="o_en93k68lj_5"><stop id="_dN-AEJkdqgbcPI8XTM8Nx" offset="7.11%" stop-color="rgb(177, 177, 177)" data-uid="o_en93k68lj_6"></stop><stop id="_FtjUbNvfShjLQyjfnRcOk" offset="54.98%" stop-color="rgb(58, 58, 58)" data-uid="o_en93k68lj_7"></stop><stop id="_H9w7EwfR9Xgd2RE5fj84J" offset="100%" stop-color="rgb(58, 58, 58)" data-uid="o_en93k68lj_8"></stop></linearGradient></defs><g id="_EeP7cqj9Lm4VmGdtu2VK-" transform="matrix(2.9602270126342773, 0, 0, 2.9113471508026123, -167.1759033203125, -530.9437866210938)" data-uid="o_en93k68lj_14"><path id="_Bh28BRKJCH9Qe4mox9diW" d="M64.927,46.641L20.382,61.179C13,63.587,8.97,71.519,11.381,78.902l3.197,9.799c2.41,7.381,10.344,11.41,17.727,9.002   l44.54-14.535c7.379-2.408,11.411-10.346,9-17.724l-3.195-9.801C80.241,48.267,72.305,44.234,64.927,46.641z M75.699,69.246   c-2.952,0.965-6.126-0.646-7.089-3.598c-0.964-2.952,0.65-6.127,3.6-7.09c2.954-0.964,6.128,0.648,7.092,3.601   C80.263,65.111,78.65,68.284,75.699,69.246z" fill="url(&quot;#go_en93gilig_38&quot;)" transform="matrix(-1.8993334770202637, -0.6171175241470337, 0.7621974945068359, -2.3458447456359863, 188.60171508789062, 438.00518798828125)" data-uid="o_en93k68lj_15"></path><path id="_0spv3yMIVBGr3SlUUpDS9" d="M40.334,15.083C40.334,15.083,40.334,15.083,40.334,15.083C40.334,15.083,40.334,15.083,40.334,15.083z" fill="#000000" transform="matrix(-1.557112216949463, -0.5059307217597961, 0.5059307217597961, -1.557112216949463, 184.49427795410156, 379.78045654296875)" data-uid="o_en93k68lj_16"></path><path id="_J3I23rooVOtlOnGCf-Oft" d="M39.854,15.849L39.854,15.849L39.854,15.849z" fill="#000000" transform="matrix(-1.557112216949463, -0.5059307217597961, 0.5059307217597961, -1.557112216949463, 184.493896484375, 379.7803955078125)" data-uid="o_en93k68lj_17"></path><path id="_7_vVYUsaeVr26r8R8oTr9" d="M27.551,24.916l3.668,3.669l3.666-3.669l1.362,1.364c0.392-3.154,1.336-6.136,2.727-8.849h-27.73v-0.023      c-0.079,0.012-0.157,0.023-0.238,0.023c-0.855,0-1.549-0.692-1.549-1.548c0-0.855,0.693-1.548,1.549-1.548      c0.081,0,0.159,0.013,0.238,0.024v-0.024h29.595c0.471-0.674,0.967-1.327,1.498-1.954H9.918v0.057      C6.646,12.453,4,15.108,4,18.381c0,3.273,2.646,5.928,5.918,5.943v0.002h2.377l4.257,4.259l3.667-3.669l3.666,3.669      L27.551,24.916z" fill="#3A3A3A" transform="matrix(-1.557112216949463, -0.5059307217597961, 0.5059307217597961, -1.557112216949463, 184.28277587890625, 379.5364074707031)" data-uid="o_en93k68lj_18"></path><path id="_jDyoQCeAjgA3dj-W62TcY" d="M64.927,46.641L20.382,61.179C13,63.587,8.97,71.519,11.381,78.902l3.197,9.799c2.41,7.381,10.344,11.41,17.727,9.002   l44.54-14.535c7.379-2.408,11.411-10.346,9-17.724l-3.195-9.801C80.241,48.267,72.305,44.234,64.927,46.641z M75.699,69.246   c-2.952,0.965-6.126-0.646-7.089-3.598c-0.964-2.952,0.65-6.127,3.6-7.09c2.954-0.964,6.128,0.648,7.092,3.601   C80.263,65.111,78.65,68.284,75.699,69.246z" fill="#3A3A3A" transform="matrix(-1.7104767560958862, -0.5557630062103271, 0.6685896515846252, -2.0577025413513184, 179.62586975097656, 417.62396240234375)" data-uid="o_en93k68lj_19"></path><path id="_5DY2pNptKR-FoTR_gfBoU" d="M83.061,47.828c-5.938,0-12.345-3.555-16.464-9.782c-5.933-8.969-4.91-20.136,2.28-24.893    c6.479-4.289,15.729-2.088,21.988,5.231c0.378,0.442,0.327,1.107-0.116,1.486c-0.442,0.379-1.105,0.328-1.485-0.115    c-5.468-6.394-13.734-8.476-19.222-4.845c-6.224,4.115-6.979,13.973-1.688,21.972c5.296,7.998,14.663,11.158,20.881,7.043    c2.975-1.969,4.805-5.309,5.15-9.405c0.354-4.19-0.877-8.653-3.467-12.565c-0.319-0.487-0.186-1.141,0.3-1.463    c0.484-0.32,1.138-0.188,1.461,0.297c2.849,4.309,4.2,9.248,3.807,13.91c-0.401,4.753-2.562,8.654-6.086,10.985    C88.201,47.139,85.676,47.828,83.061,47.828z" fill="#3A3A3A" transform="matrix(-1.557112216949463, -0.5059307217597961, 0.5059307217597961, -1.557112216949463, 195.09498596191406, 355.2193298339844)" data-uid="o_en93k68lj_20"></path><path id="_2s62xUGBM-VHi86MtLEXX" d="M83.035,50.65c-6.142,0-12.441-3.752-16.438-9.795c-5.933-8.967-4.91-20.135,2.28-24.891    c1.68-1.112,3.699-1.674,6.006-1.674c5.797,0,13.081,3.786,17.717,9.208l0.079,0.102c2.849,4.308,4.2,9.248,3.807,13.909    c-0.401,4.754-2.562,8.654-6.086,10.986C88.269,49.905,85.72,50.65,83.035,50.65z M74.883,16.398    c-1.885,0-3.515,0.446-4.841,1.324c-6.224,4.115-6.979,13.973-1.688,21.972c3.613,5.456,9.237,8.848,14.682,8.848    c2.305,0,4.39-0.607,6.199-1.806c2.975-1.968,4.805-5.308,5.15-9.404c0.354-4.173-0.864-8.613-3.43-12.513    C86.689,19.859,80.088,16.398,74.883,16.398z" fill="#7E7E7E" transform="matrix(-1.557112216949463, -0.5059307217597961, 0.5059307217597961, -1.557112216949463, 191.1137237548828, 362.7657165527344)" data-uid="o_en93k68lj_21"></path><path id="_id1Loa_zMdZrTLFWodvqr" d="M69.393,34.965c0.065-0.063,0.125-0.134,0.189-0.197c0.216-0.223,0.427-0.451,0.632-0.684   c3.218-3.618,5.175-8.379,5.175-13.602c0,0,0,0,0-0.001c0-0.518-0.023-1.026-0.061-1.534c-0.025-0.331-0.06-0.66-0.098-0.987   c-0.051-0.407-0.111-0.81-0.185-1.208C73.29,7.222,64.945,0,54.907,0c-0.028,0-0.057,0.002-0.085,0.002   c-0.346,0.001-0.688,0.011-1.03,0.029c-0.134,0.008-0.263,0.021-0.396,0.03c-0.238,0.017-0.477,0.036-0.711,0.06   c-0.15,0.016-0.297,0.037-0.443,0.057c-0.219,0.028-0.434,0.058-0.647,0.092c-0.152,0.025-0.304,0.052-0.454,0.081   c-0.209,0.039-0.416,0.08-0.623,0.125c-0.149,0.032-0.298,0.067-0.445,0.103c-0.206,0.05-0.412,0.104-0.615,0.16   c-0.144,0.039-0.284,0.079-0.426,0.121c-0.213,0.063-0.422,0.132-0.628,0.201c-0.132,0.044-0.261,0.085-0.392,0.132   c-0.227,0.081-0.45,0.169-0.675,0.258c-0.104,0.042-0.212,0.08-0.315,0.124c-0.301,0.125-0.595,0.257-0.888,0.396   c-0.026,0.013-0.052,0.023-0.077,0.035c-0.326,0.156-0.646,0.322-0.963,0.495c-0.051,0.026-0.1,0.058-0.15,0.085   c-0.258,0.145-0.515,0.292-0.766,0.448c-0.083,0.052-0.166,0.106-0.248,0.16c-0.217,0.137-0.431,0.276-0.639,0.421   c-0.092,0.063-0.182,0.128-0.271,0.192c-0.199,0.143-0.395,0.288-0.59,0.436c-0.088,0.068-0.177,0.138-0.263,0.208   c-0.192,0.153-0.384,0.311-0.571,0.471c-0.08,0.069-0.162,0.139-0.24,0.21c-0.193,0.17-0.384,0.344-0.568,0.521   c-0.068,0.066-0.139,0.129-0.205,0.197c-0.203,0.198-0.4,0.401-0.596,0.607c-0.045,0.05-0.092,0.097-0.137,0.146   c-1.259,1.363-2.33,2.9-3.183,4.566c-0.017,0.032-0.032,0.063-0.049,0.094c-0.39,0.772-0.732,1.569-1.024,2.394   c-0.012,0.034-0.022,0.068-0.035,0.103c-0.127,0.364-0.241,0.734-0.348,1.107c-0.02,0.067-0.039,0.135-0.059,0.203   c-0.224,0.816-0.396,1.652-0.519,2.505c-0.013,0.094-0.024,0.188-0.036,0.281c-0.042,0.334-0.077,0.672-0.104,1.01   c-0.01,0.107-0.018,0.216-0.023,0.325c-0.027,0.427-0.046,0.856-0.046,1.289c0,11.312,9.171,20.483,20.482,20.483   C60.563,40.965,65.683,38.672,69.393,34.965z M53.461,20.482c0-3.764,3.052-6.816,6.816-6.816c3.764,0,6.815,3.052,6.815,6.816   c0,3.765-3.052,6.815-6.815,6.815C56.513,27.298,53.461,24.247,53.461,20.482z" fill="url(&quot;#_tNvbYdpu-aEzQw7GBx7Qs&quot;)" transform="matrix(-1.557112216949463, -0.5059307217597961, 0.5059307217597961, -1.557112216949463, 183.43545532226562, 373.2769470214844)" data-uid="o_en93k68lj_22"></path></g><defs id="_60ExiluCOHkDG-aOljybs" transform="matrix(0.6259604096412659, 0, 0, 0.6259604096412659, -12.485406875610352, 193.8384246826172)" data-uid="o_en93k68lj_41"><linearGradient id="_rRIdadko8SItXRy-8Qrb8" x1="0" y1="0.5" x2="1" y2="0.5" data-uid="o_en93k68lj_42"><stop id="_lndarw2Vb_Y28AelN6H--" offset="0%" stop-color="rgb(231, 130, 0)" data-uid="o_en93k68lj_43"></stop><stop id="_5t53OSS_DLp4IynNDQutr" offset="51.42%" stop-color="rgb(237, 229, 118)" data-uid="o_en93k68lj_44"></stop><stop id="_u1zlMu1AC_9-QkIjzlbFn" offset="78.67%" stop-color="rgb(0, 0, 0)" data-uid="o_en93k68lj_45"></stop><stop id="_T23izzFbHnmsjuvYu-AnD" offset="100%" stop-color="rgb(0, 0, 0)" data-uid="o_en93k68lj_46"></stop></linearGradient></defs><g id="_qIkANA4Bxnyau-OkaTk7t" data-uid="o_en93k68lj_47" transform="matrix(1.4595183013678827, -0.0762458121436663, 0.08181777979606333, 1.566178438294221, 27.99787275039662, -139.7271377899249)"><path id="_o4wtXmADWmGJY7T7SsyFU" fill="#FFFFFF" d="M72.502,53.354c0-4.787,3.88-8.667,8.667-8.667c4.788,0,8.67,3.881,8.67,8.667  c0,4.787-3.882,8.668-8.67,8.668C76.382,62.021,72.502,58.141,72.502,53.354z M76.704,57.953c-0.113-0.098-0.25-0.114-0.322-0.033  c-0.079,0.087-0.049,0.266,0.062,0.396c1.207,1.436,2.871,2.324,4.707,2.33c1.834-0.006,3.498-0.896,4.703-2.33  c0.111-0.131,0.143-0.311,0.062-0.396c-0.07-0.081-0.208-0.062-0.323,0.033c-1.212,1.104-2.758,1.766-4.446,1.77  C79.462,59.719,77.917,59.057,76.704,57.953z M69.303,53.229c-0.881-0.013-1.771-0.018-2.668-0.018  c-6.992,0-13.527,0.406-19.084,1.114c6.077-0.247,13.713-0.293,21.76,0.317c-0.02-0.25-0.025-0.502-0.025-0.76  C69.284,53.665,69.289,53.447,69.303,53.229z M93.477,52.841c-2.195,2.319,0.609,3.66-0.283,3.813h-2.916  c0.373-1.029,0.576-2.141,0.576-3.301c0-5.349-4.334-9.685-9.685-9.685c-5.349,0-9.685,4.336-9.685,9.685  c0,1.453,0.32,2.832,0.895,4.067c-19.645-1.924-37.702,0.371-37.702,0.371l-8.217,1.692c1.367-1.672,2.187-3.808,2.187-6.131  c0-5.35-4.335-9.686-9.683-9.686c-5.349,0-9.685,4.336-9.685,9.686c0,2.135,0.691,4.107,1.863,5.709  c-4.879-0.261-8.849-0.553-10.919-1.795c-1.306-0.766,4.938-0.703,0.177-9.952c6.175-4.294,13.646-5.86,22.963-5.86  c3.699-0.146,6.614-0.762,9.255-1.573c3.679-1.399,7.489-2.793,9.773-3.589c13.003-4.529,39.9,1.622,57.266,5.717l-0.142,0.604  c-0.011,0.048-0.021,0.111-0.043,0.188c-17.578-4.146-44.318-10.137-56.626-5.339c-3.291,1.278-6.469,2.616-11.126,4.479  c7.314,0,28.246,0.049,28.246,0.049c3.854,0,5.079-2.151,5.839-2.138C81.202,40.11,95.93,42.3,99.46,42.858  C99.135,44.213,97.663,49.008,93.477,52.841z M14.498,57.953c-0.113-0.098-0.251-0.114-0.322-0.033  c-0.079,0.087-0.048,0.266,0.062,0.396c1.207,1.436,2.871,2.324,4.708,2.33c1.831-0.006,3.495-0.896,4.702-2.33  c0.111-0.131,0.143-0.311,0.062-0.396c-0.072-0.081-0.209-0.062-0.322,0.033c-1.213,1.104-2.758,1.766-4.447,1.77  C17.256,59.719,15.712,59.057,14.498,57.953z M10.296,53.354c0-4.787,3.881-8.667,8.668-8.667s8.668,3.881,8.668,8.667  c0,4.787-3.881,8.668-8.668,8.668S10.296,58.141,10.296,53.354z" transform="matrix(1.808407985733325, 1.3877787807814457e-17, -2.7755575615628914e-17, 1.8084079857333257, 80.61791236422377, 148.92881096887857)" data-uid="o_en93k68lj_52"></path></g><path text="Car Rental" fill="#FFFFFF" space="preserve" text-anchor="middle" offset="0.5" font-scale="contain" font-size="48" font-family="Lemon" transform="matrix(1.0685298963530714, -0.05251415508047071, 0.07490473113906232, 1.5241213436211576, 273.2587596224459, 130.84291577220483)" data-uid="o_en93k68lj_93" data-fl-textpath="" d="M-142.392-14.74L-142.392-14.74Q-142.392-18.1 -140.952-21.58Q-139.512-25.06 -136.87199999999999-28.03Q-134.232-31.01 -129.982-32.9Q-125.732-34.8 -121.202-34.8Q-116.66199999999999-34.8 -114.092-33.12Q-111.532-31.44 -111.532-28.46Q-111.532-25.49 -113.472-23.83Q-115.41199999999999-22.18 -117.91199999999999-22.18Q-120.41199999999999-22.18 -122.40199999999999-23.26Q-124.392-24.34 -125.592-26.35L-125.592-26.35Q-128.182-25.1 -130.052-21.46Q-131.932-17.81 -131.932-14.14Q-131.932-10.46 -130.732-8.33Q-129.53199999999998-6.19 -127.32199999999999-6.19Q-125.112-6.19 -123.41199999999999-8.45Q-121.702-10.7 -121.702-13.87L-121.702-13.87Q-116.85199999999999-13.87 -114.77199999999999-13.1Q-112.68199999999999-12.34 -112.68199999999999-9.79L-112.68199999999999-9.79Q-112.68199999999999-5.81 -117.002-2.3Q-121.32199999999999 1.2 -127.85199999999999 1.2Q-134.37199999999999 1.2 -138.382-2.83Q-142.392-6.86 -142.392-14.74ZM-90.548-5.9L-90.548-5.9L-91.028-6.14Q-92.328-2.69 -94.748-0.74Q-97.178 1.2 -100.148 1.2L-100.148 1.2Q-104.22800000000001 1.2 -106.678-1.87Q-109.128-4.94 -109.128-10.08L-109.128-10.08Q-109.128-18.05 -103.778-23.42Q-98.428-28.8 -90.458-28.8L-90.458-28.8Q-88.388-28.8 -86.668-28.42L-86.668-28.42Q-86.378-27.07 -86.328-26.06L-86.328-26.06Q-83.928-27.6 -81.388-27.6L-81.388-27.6Q-77.878-27.6 -77.878-23.81L-77.878-23.81Q-77.878-22.46 -79.388-15.7Q-80.908-8.93 -80.908-5.66Q-80.908-2.4 -79.418-1.15L-79.418-1.15Q-82.108 1.2 -85.00800000000001 1.2Q-87.908 1.2 -89.22800000000001-0.53Q-90.548-2.26 -90.548-5.9ZM-100.108-12.43L-100.108-12.43Q-100.108-10.08 -99.118-8.81Q-98.138-7.54 -96.308-7.54Q-94.488-7.54 -92.708-8.88Q-90.938-10.22 -89.738-12.58L-89.738-12.58Q-89.308-17.42 -87.868-24.05L-87.868-24.05Q-92.708-24.05 -96.408-20.54Q-100.108-17.04 -100.108-12.43ZM-73.08-4.75L-73.08-4.75Q-73.08-6.67 -72.1-12.19Q-71.11-17.71 -70.06-22.27L-70.06-22.27L-72.55-26.11Q-66.55-28.8 -64.13-28.8Q-61.7-28.8 -61.7-25.73L-61.7-25.73Q-61.7-24.05 -63.29-18.72L-63.29-18.72L-62.81-18.48Q-59.349999999999994-28.8 -54.22-28.8L-54.22-28.8Q-51.86-28.8 -50.62-27.36Q-49.37-25.92 -49.37-24.14L-49.37-24.14Q-49.37-21.5 -51.34-19.63Q-53.3-17.76 -57.239999999999995-17.76L-57.239999999999995-17.76Q-63.19-17.76 -63.19-5.52L-63.19-5.52Q-63.19-2.54 -62.18-1.15L-62.18-1.15Q-65.16 1.2 -67.66 1.2L-67.66 1.2Q-73.08 1.2 -73.08-4.75ZM-15.428000000000004-6.67L-15.428000000000004-6.67L-17.108000000000004-11.52Q-19.608000000000004-11.52 -22.148000000000003-12.29L-22.148000000000003-12.29Q-22.678000000000004-9.22 -22.678000000000004-7.87L-22.678000000000004-7.87Q-22.678000000000004-3.22 -21.238000000000007-0.91L-21.238000000000007-0.91Q-24.118000000000002 1.25 -27.238000000000007 1.25Q-30.358000000000004 1.25 -31.708000000000006-0.55Q-33.048-2.35 -33.048-5.93Q-33.048-9.5 -30.028000000000006-26.21L-30.028000000000006-26.21L-32.568000000000005-31.34Q-27.188000000000002-34.8 -22.678000000000004-34.8L-22.678000000000004-34.8Q-19.228000000000005-34.8 -17.348000000000006-33.36L-17.348000000000006-33.36Q-13.748000000000005-34.8 -10.868000000000006-34.8L-10.868000000000006-34.8Q-6.4580000000000055-34.8 -3.868000000000002-31.82Q-1.2680000000000078-28.85 -1.2680000000000078-24.67L-1.2680000000000078-24.67Q-1.2680000000000078-21.55 -2.858000000000004-18.65Q-4.438000000000006-15.74 -7.508000000000003-13.92L-7.508000000000003-13.92Q-5.878000000000004-9.26 -3.838000000000001-5.9Q-1.7980000000000018-2.54  0.2119999999999962-1.44L 0.2119999999999962-1.44Q-0.7880000000000038-0.38 -2.878000000000007 0.41Q-4.9680000000000035 1.2 -6.648000000000003 1.2L-6.648000000000003 1.2Q-9.908000000000005 1.2 -11.878000000000004-0.46Q-13.848000000000006-2.11 -15.428000000000004-6.67ZM-20.038000000000004-17.52L-20.038000000000004-17.52Q-16.198000000000004-17.52 -14.068000000000005-19.49Q-11.928000000000004-21.46 -11.928000000000004-23.71Q-11.928000000000004-25.97 -13.178000000000004-27.31Q-14.428000000000004-28.66 -16.728000000000005-28.66L-16.728000000000005-28.66Q-17.978000000000005-28.66 -19.228000000000005-28.32L-19.228000000000005-28.32Q-20.758000000000003-19.15 -21.148000000000003-17.57L-21.148000000000003-17.57Q-20.808000000000007-17.52 -20.038000000000004-17.52ZM 15.145999999999994 1.2L 15.145999999999994 1.2Q 8.565999999999994 1.2  4.995999999999993-2.21Q 1.4159999999999933-5.62  1.4159999999999933-11.42L 1.4159999999999933-11.42Q 1.4159999999999933-19.15  6.715999999999993-23.98Q 12.025999999999993-28.8  20.035999999999994-28.8L 20.035999999999994-28.8Q 24.505999999999993-28.8  26.805999999999994-26.81Q 29.115999999999993-24.82  29.115999999999993-21.55L 29.115999999999993-21.55Q 29.115999999999993-17.09  24.765999999999995-14.14Q 20.425999999999995-11.18  11.355999999999993-11.14L 11.355999999999993-11.14Q 11.495999999999993-8.06  12.745999999999993-6.31Q 13.995999999999993-4.56  15.865999999999993-4.56Q 17.735999999999994-4.56  19.105999999999995-5.81Q 20.475999999999992-7.06  20.475999999999992-9.89L 20.475999999999992-9.89Q 27.475999999999992-9.89  27.475999999999992-6.58L 27.475999999999992-6.58Q 27.475999999999992-3.74  24.025999999999993-1.27Q 20.565999999999992 1.2  15.145999999999994 1.2ZM 19.225999999999992-23.18L 19.225999999999992-23.18Q 16.775999999999993-23.18  14.735999999999994-20.74Q 12.695999999999993-18.29  11.785999999999992-14.98L 11.785999999999992-14.98Q 16.58599999999999-15.36  19.005999999999993-17.16Q 21.435999999999993-18.96  21.435999999999993-20.98L 21.435999999999993-20.98Q 21.435999999999993-21.94  20.83599999999999-22.56Q 20.235999999999994-23.18  19.225999999999992-23.18ZM 38.952 1.2Q 36.12199999999999 1.2  34.77199999999999-0.29Q 33.431999999999995-1.78  33.431999999999995-4.22Q 33.431999999999995-6.67  34.41199999999999-12.19Q 35.401999999999994-17.71  36.452-22.27L 36.452-22.27L 33.961999999999996-26.11Q 38.711999999999996-28.8  42.74199999999999-28.8Q 46.77199999999999-28.8  46.77199999999999-25.15L 46.77199999999999-25.15Q 46.77199999999999-22.75  45.672-20.26L 45.672-20.26L 46.151999999999994-20.02Q 51.291999999999994-28.8  59.211999999999996-28.8L 59.211999999999996-28.8Q 65.012-28.8  65.012-22.99L 65.012-22.99Q 65.012-20.5  63.602-14.54Q 62.181999999999995-8.59  62.181999999999995-5.57Q 62.181999999999995-2.54  63.19199999999999-1.15L 63.19199999999999-1.15Q 60.651999999999994 1.2  57.812 1.2L 57.812 1.2Q 52.291999999999994 1.2  52.291999999999994-4.75L 52.291999999999994-4.75Q 52.291999999999994-6.96  53.732-12.24Q 55.172-17.52  55.172-19.1L 55.172-19.1Q 55.172-21.26  53.541999999999994-21.26L 53.541999999999994-21.26Q 52.202-21.26  50.471999999999994-20.09Q 48.74199999999999-18.91  47.13199999999999-16.92Q 45.532-14.93  44.422-11.88Q 43.321999999999996-8.83  43.321999999999996-5.69Q 43.321999999999996-2.54  44.331999999999994-1.15L 44.331999999999994-1.15Q 41.782 1.2  38.952 1.2ZM 70.39599999999999-17.33L 70.39599999999999-17.33Q 70.05599999999998-18.67  70.05599999999998-19.82L 70.05599999999998-19.82Q 70.05599999999998-22.18  71.44599999999998-23.38Q 72.83599999999998-24.58  75.04599999999999-24.58L 75.04599999999999-24.58Q 75.04599999999999-27.07  73.75599999999999-30L 73.75599999999999-30Q 76.106-31.73  78.04599999999999-32.62Q 79.99599999999998-33.5  82.15599999999999-33.5Q 84.31599999999999-33.5  85.15599999999999-32.71Q 85.99599999999998-31.92  85.99599999999998-30.29Q 85.99599999999998-28.66  85.31599999999999-25.2L 85.31599999999999-25.2Q 87.23599999999999-25.49  89.20599999999999-26.02L 89.20599999999999-26.02Q 89.54599999999999-25.01  89.54599999999999-23.42Q 89.54599999999999-21.84  88.31599999999999-20.47Q 87.09599999999999-19.1  84.74599999999998-19.1L 84.74599999999998-19.1L 84.02599999999998-19.1Q 82.29599999999999-11.28  82.29599999999999-7.06Q 82.29599999999999-2.83  83.78599999999999-1.15L 83.78599999999999-1.15Q 81.09599999999999 1.2  78.076 1.2Q 75.04599999999999 1.2  73.72599999999998-0.6Q 72.40599999999999-2.4  72.40599999999999-6.19L 72.40599999999999-6.19Q 72.40599999999999-8.5  74.08599999999998-18.29L 74.08599999999998-18.29Q 72.16599999999998-17.95  70.39599999999999-17.33ZM 110.52399999999999-5.9L 110.52399999999999-5.9L 110.04399999999998-6.14Q 108.74399999999999-2.69  106.32399999999998-0.74Q 103.89399999999999 1.2  100.92399999999999 1.2L 100.92399999999999 1.2Q 96.844 1.2  94.39399999999999-1.87Q 91.94399999999999-4.94  91.94399999999999-10.08L 91.94399999999999-10.08Q 91.94399999999999-18.05  97.29399999999998-23.42Q 102.64399999999999-28.8  110.61399999999999-28.8L 110.61399999999999-28.8Q 112.68399999999998-28.8  114.40399999999998-28.42L 114.40399999999998-28.42Q 114.69399999999999-27.07  114.74399999999999-26.06L 114.74399999999999-26.06Q 117.14399999999999-27.6  119.68399999999998-27.6L 119.68399999999998-27.6Q 123.19399999999999-27.6  123.19399999999999-23.81L 123.19399999999999-23.81Q 123.19399999999999-22.46  121.68399999999998-15.7Q 120.16399999999999-8.93  120.16399999999999-5.66Q 120.16399999999999-2.4  121.65399999999998-1.15L 121.65399999999998-1.15Q 118.96399999999998 1.2  116.064 1.2Q 113.16399999999999 1.2  111.844-0.53Q 110.52399999999999-2.26  110.52399999999999-5.9ZM 100.96399999999998-12.43L 100.96399999999998-12.43Q 100.96399999999998-10.08  101.95399999999998-8.81Q 102.93399999999998-7.54  104.76399999999998-7.54Q 106.58399999999999-7.54  108.36399999999999-8.88Q 110.13399999999999-10.22  111.33399999999999-12.58L 111.33399999999999-12.58Q 111.76399999999998-17.42  113.20399999999998-24.05L 113.20399999999998-24.05Q 108.36399999999999-24.05  104.66399999999999-20.54Q 100.96399999999998-17.04  100.96399999999998-12.43ZM 132.50199999999998-29.86L 132.50199999999998-29.86L 129.81199999999998-33.7Q 135.81199999999998-37.2  139.272-37.2L 139.272-37.2Q 141.242-37.2  142.052-36.41Q 142.87199999999999-35.62  142.87199999999999-33.43Q 142.87199999999999-31.25  140.732-21.12Q 138.60199999999998-10.99  138.60199999999998-6.91Q 138.60199999999998-2.83  140.09199999999998-1.15L 140.09199999999998-1.15Q 136.732 1.2  133.992 1.2Q 131.25199999999998 1.2  129.982-0.6Q 128.712-2.4  128.712-5.57Q 128.712-8.74  130.492-18.53Q 132.262-28.32  132.50199999999998-29.86Z" font-weight="400" font-style="normal"></path></svg>