<svg xmlns:xlink="http://www.w3.org/1999/xlink" xmlns="http://www.w3.org/2000/svg" viewBox="0 0 24 24" width="24"  height="24" ><path fill="#000000" d="M8.259 15.222L7.3 18.801l-1.932-.517.458-1.71-2.34 1.3-.972-1.748 2.089-1.161-1.362-.365.518-1.932 3.359.9L9.94 12l-2.822-1.568-3.358.9L3.242 9.4l1.362-.365-2.09-1.161.972-1.748 2.341 1.301-.458-1.711 1.932-.517.959 3.579L11 10.301v-3.23L8.459 4.53l1.414-1.414L11 4.242V2h2v2.243l1.128-1.128 1.414 1.415L13 7.071v3.23l2.741-1.523.959-3.579 1.932.517-.458 1.71 2.34-1.3.972 1.748-2.089 1.161 1.362.365-.518 1.932-3.359-.9L14.059 12l2.825 1.57 3.357-.901.518 1.932-1.361.365 2.088 1.16-.972 1.748-2.341-1.3.459 1.712-1.932.517-.959-3.581L13 13.7v3.229l2.541 2.541-1.414 1.414L13 19.757V22h-2v-2.243l-1.128 1.127-1.414-1.414L11 16.929v-3.23z"></path></svg>