<?xml version="1.0" encoding="iso-8859-1"?>
<!-- Generator: Adobe Illustrator 19.0.0, SVG Export Plug-In . SVG Version: 6.00 Build 0)  -->
<svg version="1.1" id="Layer_1" xmlns="http://www.w3.org/2000/svg" xmlns:xlink="http://www.w3.org/1999/xlink" x="0px" y="0px"
	 viewBox="0 0 293 293" style="enable-background:new 0 0 293 293;" xml:space="preserve">
<g>
	<g>
		<g>
			<path d="M0,83.253v187.258c0,9.047,7.334,16.381,16.381,16.381H40V66.873H16.381C7.334,66.873,0,74.206,0,83.253z"/>
			<path d="M276.619,66.873H253v220.019h23.619c9.047,0,16.381-7.334,16.381-16.381V83.253
				C293,74.206,285.666,66.873,276.619,66.873z"/>
			<path d="M204.176,13.608c0-4.142-3.357-7.5-7.5-7.5H96.324c-4.143,0-7.5,3.358-7.5,7.5v53.264H70.646v220.019h151.708V66.873
				h-18.178V13.608z M103.824,21.108h85.352v38.264h-85.352V21.108z M189.334,234.981l-34.306,31.148
				c-1.384,1.256-3.182,1.947-5.042,1.947c-0.12,0-0.24-0.003-0.361-0.009c-1.987-0.096-3.855-0.977-5.191-2.45l-16.133-17.769
				c-2.784-3.066-2.556-7.81,0.511-10.594l34.305-31.149c3.066-2.784,7.81-2.556,10.595,0.511l16.134,17.768
				c1.337,1.473,2.034,3.416,1.939,5.403C191.688,231.777,190.807,233.644,189.334,234.981z"/>
			<rect x="154.585" y="220.446" transform="matrix(-0.6722 -0.7404 0.7404 -0.6722 91.2029 512.6116)" width="9" height="31.338"/>
		</g>
	</g>
</g>
<g>
</g>
<g>
</g>
<g>
</g>
<g>
</g>
<g>
</g>
<g>
</g>
<g>
</g>
<g>
</g>
<g>
</g>
<g>
</g>
<g>
</g>
<g>
</g>
<g>
</g>
<g>
</g>
<g>
</g>
</svg>
